<?xml version="1.0" standalone="no"?>
<!DOCTYPE svg PUBLIC "-//W3C//DTD SVG 20010904//EN"
 "http://www.w3.org/TR/2001/REC-SVG-20010904/DTD/svg10.dtd">
<svg version="1.0" xmlns="http://www.w3.org/2000/svg"
 width="512.000000pt" height="512.000000pt" viewBox="0 0 512.000000 512.000000"
 preserveAspectRatio="xMidYMid meet">
<metadata>
Created by potrace 1.14, written by Peter Selinger 2001-2017
</metadata>
<g transform="translate(0.000000,512.000000) scale(0.100000,-0.100000)"
fill="#000000" stroke="none">
<path d="M656 4884 l-168 -126 -56 22 c-73 29 -123 35 -166 20 -68 -22 -109
-70 -121 -141 -3 -19 -11 -36 -16 -38 -29 -10 -85 -71 -105 -116 l-24 -50 1
-1065 c0 -873 2 -1077 14 -1131 36 -169 162 -323 325 -397 25 -11 97 -40 160
-65 63 -24 176 -67 250 -96 172 -67 190 -74 190 -83 0 -8 -74 -103 -120 -151
-60 -65 -195 -173 -282 -225 -88 -53 -193 -101 -321 -147 -98 -34 -164 -94
-195 -175 -20 -52 -21 -72 -19 -335 2 -251 4 -284 21 -315 56 -106 163 -164
273 -148 40 6 346 118 458 167 11 5 58 24 105 41 47 18 128 49 180 70 52 21
172 68 265 104 94 36 256 98 360 139 105 41 349 136 542 211 l353 138 132 -52
c73 -28 152 -60 175 -71 24 -10 46 -19 50 -19 7 0 272 -103 348 -135 17 -7 68
-27 115 -45 47 -17 99 -38 115 -45 17 -7 212 -84 435 -170 223 -87 419 -164
435 -171 71 -30 326 -128 395 -151 116 -38 203 -20 282 59 71 71 73 78 73 403
l0 290 -28 58 c-37 75 -103 125 -218 165 -167 59 -287 122 -409 215 -120 92
-293 279 -274 297 8 8 66 31 417 166 216 84 263 109 343 187 81 79 133 170
158 277 23 99 24 2164 1 2231 -16 46 -76 120 -107 132 -10 3 -20 22 -24 44
-15 84 -78 142 -162 151 -33 3 -63 -3 -113 -23 l-69 -27 -168 126 -168 125
-81 -19 c-45 -11 -92 -21 -105 -24 -13 -2 -131 -29 -262 -60 -132 -31 -249
-58 -260 -60 -41 -9 -243 -56 -318 -76 -122 -31 -300 -122 -370 -189 -9 -9
-44 -43 -78 -76 -62 -60 -147 -181 -187 -265 -18 -38 -36 -89 -70 -200 -3 -8
-11 9 -19 39 -75 286 -313 551 -589 655 -49 19 -200 60 -335 91 -135 31 -263
60 -285 66 -22 5 -49 11 -60 13 -11 2 -40 9 -65 16 -25 7 -54 14 -65 16 -36 7
-58 12 -175 39 -63 14 -122 28 -130 30 -9 3 -86 -48 -184 -121z"/>
</g>
</svg>
